# xmcd
#
# Track frame offsets:
# 150
# 24853
# 46691
# 66692
# 88203
# 107255
# 122416
# 138973
# 155257
# 179599
#
# Disc length: 2633 seconds
#
# Revision: 0
# Processed by: cddbd v1.5.2PL0 Copyright (c) Steve Scherf et al.
# Submitted via: Audion 3.0.2 (http://www.panic.com/audion/)
#
DISCID=7a0a470a
DTITLE=G-Flux - G-Flux
DYEAR=1900
DGENRE=
TTITLE0=Onda
TTITLE1=Azuquitar
TTITLE2=Modelito Feat. Afrodita
TTITLE3=Gozadera
TTITLE4=Trivolution Feat. Afrodita
TTITLE5=Ciclon Del Caribe Feat. Afrodita
TTITLE6=A Gozar
TTITLE7=Kumbacha
TTITLE8=Ciclon del Caribe Sabo Remix
TTITLE9=El Sueño
EXTD=
EXTT0=
EXTT1=
EXTT2=
EXTT3=
EXTT4=
EXTT5=
EXTT6=
EXTT7=
EXTT8=
EXTT9=
PLAYORDER=
